<mxfile host="app.diagrams.net" modified="2023-11-28T16:59:19.099Z" agent="Mozilla/5.0 (Windows NT 10.0; Win64; x64) AppleWebKit/537.36 (KHTML, like Gecko) Chrome/116.0.0.0 Safari/537.36 OPR/102.0.0.0" version="22.1.4" etag="EyxME2ODq52ISHCAM24W" type="github">
  <diagram name="PÃ¡gina-1" id="qLkA8fZ-BlqPOKsEqf4X">
    <mxGraphModel>
      <root>
        <mxCell id="0" />
        <mxCell id="1" parent="0" />
      </root>
    </mxGraphModel>
  </diagram>
</mxfile>
